<svg width="1200" height="720" viewBox="0 0 1200 720" fill="none" xmlns="http://www.w3.org/2000/svg">
  <rect width="1200" height="720" fill="#FCFCFF"/>
  <path d="M0 552C132 498 224 534 356 490C486 447 544 318 706 316C854 314 916 410 1042 364C1102 342 1142 304 1200 268V720H0V552Z" fill="#FFF4BC"/>
  <path d="M84 156H314V254H478V188H664V298H878V222H1116" stroke="#102A43" stroke-width="6" stroke-linecap="round" stroke-linejoin="round" opacity="0.8"/>
  <path d="M96 482H265V405H444V520H612V418H796V486H1034V396H1128" stroke="#FF9F1C" stroke-width="5" stroke-linecap="round" stroke-linejoin="round"/>
  <path d="M170 326H360M360 326V366H548M548 366V252H736M736 252V342H988" stroke="#FFD447" stroke-width="5" stroke-linecap="round" stroke-linejoin="round"/>
  <g fill="#FCFCFF" stroke="#102A43" stroke-width="5">
    <circle cx="84" cy="156" r="20"/>
    <circle cx="478" cy="188" r="20"/>
    <circle cx="878" cy="222" r="20"/>
    <circle cx="1116" cy="222" r="20"/>
  </g>
  <g fill="#FCFCFF" stroke="#FF9F1C" stroke-width="5">
    <circle cx="96" cy="482" r="18"/>
    <circle cx="444" cy="520" r="18"/>
    <circle cx="796" cy="486" r="18"/>
    <circle cx="1128" cy="396" r="18"/>
  </g>
  <g opacity="0.86">
    <rect x="512" y="248" width="176" height="176" rx="18" fill="#FCFCFF" stroke="#B8C2CC" stroke-width="4"/>
    <rect x="552" y="288" width="96" height="96" rx="10" fill="#FFF9D7" stroke="#102A43" stroke-width="4"/>
    <path d="M512 288H452M512 328H452M512 368H452M688 288H748M688 328H748M688 368H748M552 248V188M592 248V188M632 248V188M552 424V484M592 424V484M632 424V484" stroke="#FF9F1C" stroke-width="4" stroke-linecap="round" opacity="0.75"/>
  </g>
  <text x="72" y="650" fill="#102A43" font-family="ui-monospace, SFMono-Regular, Consolas, monospace" font-size="38" font-weight="700" letter-spacing="5">RUBBERDUCK</text>
  <text x="72" y="688" fill="#FF9F1C" font-family="ui-monospace, SFMono-Regular, Consolas, monospace" font-size="18" font-weight="700" letter-spacing="4">BUILD IT IN THE OPEN</text>
</svg>
